999
dxfrw 0.6.3
  0
SECTION
  2
HEADER
  9
$ACADVER
  1
AC1021
  9
$DWGCODEPAGE
  3
ANSI_1252
  9
$INSBASE
 10
0
 20
0
 30
0
  9
$EXTMIN
 10
0.154718
 20
0.132586
 30
0
  9
$EXTMAX
 10
267.741869
 20
296.846652
 30
0
  9
$LIMMIN
 10
0
 20
0
  9
$LIMMAX
 10
420
 20
297
  9
$ORTHOMODE
 70
    0
  9
$REGENMODE
 70
    1
  9
$FILLMODE
 70
    1
  9
$QTEXTMODE
 70
    0
  9
$MIRRTEXT
 70
    0
  9
$LTSCALE
 40
1
  9
$ATTMODE
 70
    0
  9
$TEXTSIZE
 40
2.5
  9
$TRACEWID
 40
15.68
  9
$TEXTSTYLE
  7
STANDARD
  9
$CLAYER
  8
0
  9
$CELTYPE
  6
BYLAYER
  9
$CECOLOR
 62
  256
  9
$CELTSCALE
 40
1
  9
$DISPSILH
 70
    0
  9
$DIMSCALE
 40
2.5
  9
$DIMASZ
 40
2.5
  9
$DIMEXO
 40
0.625
  9
$DIMDLI
 40
3.75
  9
$DIMRND
 40
0
  9
$DIMDLE
 40
0
  9
$DIMEXE
 40
1.25
  9
$DIMTP
 40
0
  9
$DIMTM
 40
0
  9
$DIMTXT
 40
2.5
  9
$DIMCEN
 40
2.5
  9
$DIMTSZ
 40
0
  9
$DIMTOL
 70
    0
  9
$DIMLIM
 70
    0
  9
$DIMTIH
 70
    0
  9
$DIMTOH
 70
    0
  9
$DIMSE1
 70
    0
  9
$DIMSE2
 70
    0
  9
$DIMTAD
 70
    1
  9
$DIMZIN
 70
    8
  9
$DIMBLK
  1

  9
$DIMASO
 70
    1
  9
$DIMSHO
 70
    1
  9
$DIMPOST
  1

  9
$DIMAPOST
  1

  9
$DIMALT
 70
    0
  9
$DIMALTD
 70
    3
  9
$DIMALTF
 40
0.03937
  9
$DIMLFAC
 40
1
  9
$DIMTOFL
 70
    1
  9
$DIMTVP
 40
0
  9
$DIMTIX
 70
    0
  9
$DIMSOXD
 70
    0
  9
$DIMSAH
 70
    0
  9
$DIMBLK1
  1

  9
$DIMBLK2
  1

  9
$DIMSTYLE
  2
Standard
  9
$DIMCLRD
 70
    0
  9
$DIMCLRE
 70
    0
  9
$DIMCLRT
 70
    0
  9
$DIMTFAC
 40
1
  9
$DIMGAP
 40
0.625
  9
$DIMJUST
 70
    0
  9
$DIMSD1
 70
    0
  9
$DIMSD2
 70
    0
  9
$DIMTOLJ
 70
    0
  9
$DIMTZIN
 70
    8
  9
$DIMALTZ
 70
    0
  9
$DIMALTTZ
 70
    0
  9
$DIMUPT
 70
    0
  9
$DIMDEC
 70
    2
  9
$DIMTDEC
 70
    2
  9
$DIMALTU
 70
    2
  9
$DIMALTTD
 70
    3
  9
$DIMTXSTY
  7
STANDARD
  9
$DIMAUNIT
 70
    0
  9
$DIMADEC
 70
    0
  9
$DIMALTRND
 40
0
  9
$DIMAZIN
 70
    0
  9
$DIMDSEP
 70
   44
  9
$DIMATFIT
 70
    3
  9
$DIMFRAC
 70
    0
  9
$DIMLDRBLK
  1
STANDARD
  9
$DIMLUNIT
 70
    2
  9
$DIMLWD
 70
   -2
  9
$DIMLWE
 70
   -2
  9
$DIMTMOVE
 70
    0
  9
$DIMFXL
 40
1
  9
$DIMFXLON
 70
    0
  9
$DIMJOGANG
 40
0.7854
  9
$DIMTFILL
 70
    0
  9
$DIMTFILLCLR
 70
    0
  9
$DIMARCSYM
 70
    0
  9
$DIMLTYPE
  6

  9
$DIMLTEX1
  6

  9
$DIMLTEX2
  6

  9
$LUNITS
 70
    2
  9
$LUPREC
 70
    4
  9
$SKETCHINC
 40
1
  9
$FILLETRAD
 40
0
  9
$AUNITS
 70
    0
  9
$AUPREC
 70
    2
  9
$MENU
  1
.
  9
$ELEVATION
 40
0
  9
$PELEVATION
 40
0
  9
$THICKNESS
 40
0
  9
$LIMCHECK
 70
    0
  9
$CHAMFERA
 40
0
  9
$CHAMFERB
 40
0
  9
$CHAMFERC
 40
0
  9
$CHAMFERD
 40
0
  9
$SKPOLY
 70
    0
  9
$USRTIMER
 70
    1
  9
$ANGBASE
 50
0
  9
$ANGDIR
 70
    0
  9
$PDMODE
 70
   34
  9
$PDSIZE
 40
0
  9
$PLINEWID
 40
0
  9
$SPLFRAME
 70
    0
  9
$SPLINETYPE
 70
    2
  9
$SPLINESEGS
 70
    8
  9
$HANDSEED
  5
20000
  9
$SURFTAB1
 70
    6
  9
$SURFTAB2
 70
    6
  9
$SURFTYPE
 70
    6
  9
$SURFU
 70
    6
  9
$SURFV
 70
    6
  9
$UCSBASE
  2

  9
$UCSNAME
  2

  9
$UCSORG
 10
0
 20
0
 30
0
  9
$UCSXDIR
 10
1
 20
0
 30
0
  9
$UCSYDIR
 10
0
 20
1
 30
0
  9
$UCSORTHOREF
  2

  9
$UCSORTHOVIEW
 70
    0
  9
$UCSORGTOP
 10
0
 20
0
 30
0
  9
$UCSORGBOTTOM
 10
0
 20
0
 30
0
  9
$UCSORGLEFT
 10
0
 20
0
 30
0
  9
$UCSORGRIGHT
 10
0
 20
0
 30
0
  9
$UCSORGFRONT
 10
0
 20
0
 30
0
  9
$UCSORGBACK
 10
0
 20
0
 30
0
  9
$PUCSBASE
  2

  9
$PUCSNAME
  2

  9
$PUCSORG
 10
0
 20
0
 30
0
  9
$PUCSXDIR
 10
1
 20
0
 30
0
  9
$PUCSYDIR
 10
0
 20
1
 30
0
  9
$PUCSORTHOREF
  2

  9
$PUCSORTHOVIEW
 70
    0
  9
$PUCSORGTOP
 10
0
 20
0
 30
0
  9
$PUCSORGBOTTOM
 10
0
 20
0
 30
0
  9
$PUCSORGLEFT
 10
0
 20
0
 30
0
  9
$PUCSORGRIGHT
 10
0
 20
0
 30
0
  9
$PUCSORGFRONT
 10
0
 20
0
 30
0
  9
$PUCSORGBACK
 10
0
 20
0
 30
0
  9
$USERI1
 70
    0
  9
$USERI2
 70
    0
  9
$USERI3
 70
    0
  9
$USERI4
 70
    0
  9
$USERI5
 70
    0
  9
$USERR1
 40
0
  9
$USERR2
 40
0
  9
$USERR3
 40
0
  9
$USERR4
 40
0
  9
$USERR5
 40
0
  9
$WORLDVIEW
 70
    1
  9
$SHADEDGE
 70
    3
  9
$SHADEDIF
 70
   70
  9
$TILEMODE
 70
    1
  9
$MAXACTVP
 70
   64
  9
$PINSBASE
 10
0
 20
0
 30
0
  9
$PLIMCHECK
 70
    0
  9
$PEXTMIN
 10
0
 20
0
 30
0
  9
$PEXTMAX
 10
0
 20
0
 30
0
  9
$GRIDMODE
 70
    1
  9
$SNAPSTYLE
 70
    0
  9
$PLIMMIN
 10
0
 20
0
  9
$PLIMMAX
 10
210
 20
297
  9
$UNITMODE
 70
    0
  9
$VISRETAIN
 70
    1
  9
$PLINEGEN
 70
    0
  9
$PSLTSCALE
 70
    1
  9
$TREEDEPTH
 70
 3020
  9
$CMLSTYLE
  2
Standard
  9
$CMLJUST
 70
    0
  9
$CMLSCALE
 40
20
  9
$PROXYGRAPHICS
 70
    1
  9
$MEASUREMENT
 70
    1
  9
$CELWEIGHT
370
   -1
  9
$ENDCAPS
280
    0
  9
$JOINSTYLE
280
    0
  9
$LWDISPLAY
290
    0
  9
$INSUNITS
 70
    4
  9
$HYPERLINKBASE
  1

  9
$STYLESHEET
  1

  9
$XEDIT
290
    1
  9
$CEPSNTYPE
380
    0
  9
$PSTYLEMODE
290
    1
  9
$EXTNAMES
290
    1
  9
$PSVPSCALE
 40
1
  9
$OLESTARTUP
290
    0
  9
$SORTENTS
280
  127
  9
$INDEXCTL
280
    0
  9
$HIDETEXT
280
    1
  9
$XCLIPFRAME
290
    0
  9
$HALOGAP
280
    0
  9
$OBSCOLOR
 70
  257
  9
$OBSLTYPE
280
    0
  9
$INTERSECTIONDISPLAY
280
    0
  9
$INTERSECTIONCOLOR
 70
  257
  9
$DIMASSOC
280
    1
  9
$PROJECTNAME
  1

  9
$CAMERADISPLAY
290
    0
  9
$LENSLENGTH
 40
50
  9
$CAMERAHEIGHT
 40
0
  9
$STEPSPERSEC
 40
2
  9
$STEPSIZE
 40
50
  9
$3DDWFPREC
 40
2
  9
$PSOLWIDTH
 40
5
  9
$PSOLHEIGHT
 40
80
  9
$LOFTANG1
 40
1.570796326794897
  9
$LOFTANG2
 40
1.570796326794897
  9
$LOFTMAG1
 40
0
  9
$LOFTMAG2
 40
0
  9
$LOFTPARAM
 70
    7
  9
$LOFTNORMALS
280
    1
  9
$LATITUDE
 40
1
  9
$LONGITUDE
 40
1
  9
$NORTHDIRECTION
 40
0
  9
$TIMEZONE
 70
-8000
  9
$LIGHTGLYPHDISPLAY
280
    1
  9
$TILEMODELIGHTSYNCH
280
    1
  9
$SOLIDHIST
280
    1
  9
$SHOWHIST
280
    1
  9
$DWFFRAME
280
    2
  9
$DGNFRAME
280
    0
  9
$REALWORLDSCALE
290
    1
  9
$INTERFERECOLOR
 62
    1
  9
$CSHADOW
280
    0
  9
$SHADOWPLANELOCATION
 40
0
  0
ENDSEC
  0
SECTION
  2
CLASSES
  0
ENDSEC
  0
SECTION
  2
TABLES
  0
TABLE
  2
VPORT
  5
8
330
0
100
AcDbSymbolTable
 70
    1
  0
VPORT
  5
31
330
2
100
AcDbSymbolTableRecord
100
AcDbViewportTableRecord
  2
*ACTIVE
 70
    0
 10
0
 20
0
 11
1
 21
1
 12
263.354943396227
 22
177.1702093160381
 13
0
 23
0
 14
10
 24
10
 15
10
 25
10
 16
0
 26
0
 36
1
 17
0
 27
0
 37
0
 40
387.7170000000008
 41
1.889150943396226
 42
50
 43
0
 44
0
 50
0
 51
0
 71
    0
 72
  100
 73
    1
 74
    3
 75
    0
 76
    1
 77
    0
 78
    0
281
    0
 65
    1
110
0
120
0
130
0
111
1
121
0
131
0
112
0
122
1
132
0
 79
    0
146
0
348
10020
 60
    7
 61
    5
292
1
282
    1
141
0
142
0
 63
  250
421
3358443
  0
ENDTAB
  0
TABLE
  2
LTYPE
  5
5
330
0
100
AcDbSymbolTable
 70
    4
  0
LTYPE
  5
14
330
5
100
AcDbSymbolTableRecord
100
AcDbLinetypeTableRecord
  2
ByBlock
 70
    0
  3

 72
   65
 73
    0
 40
0
  0
LTYPE
  5
15
330
5
100
AcDbSymbolTableRecord
100
AcDbLinetypeTableRecord
  2
ByLayer
 70
    0
  3

 72
   65
 73
    0
 40
0
  0
LTYPE
  5
16
330
5
100
AcDbSymbolTableRecord
100
AcDbLinetypeTableRecord
  2
Continuous
 70
    0
  3
Solid line
 72
   65
 73
    0
 40
0
  0
LTYPE
  5
32
330
5
100
AcDbSymbolTableRecord
100
AcDbLinetypeTableRecord
  2
DOT
 70
    0
  3
Dot . . . . . . . . . . . . . . . . . . . . . .
 72
   65
 73
    2
 40
6.35
 49
0
 74
    0
 49
-6.35
 74
    0
  0
LTYPE
  5
33
330
5
100
AcDbSymbolTableRecord
100
AcDbLinetypeTableRecord
  2
DOTTINY
 70
    0
  3
Dot (.15x) .....................................
 72
   65
 73
    2
 40
0.9525
 49
0
 74
    0
 49
-0.9525
 74
    0
  0
LTYPE
  5
34
330
5
100
AcDbSymbolTableRecord
100
AcDbLinetypeTableRecord
  2
DOT2
 70
    0
  3
Dot (.5x) .....................................
 72
   65
 73
    2
 40
3.175
 49
0
 74
    0
 49
-3.175
 74
    0
  0
LTYPE
  5
35
330
5
100
AcDbSymbolTableRecord
100
AcDbLinetypeTableRecord
  2
DOTX2
 70
    0
  3
Dot (2x) .  .  .  .  .  .  .  .  .  .  .  .  .
 72
   65
 73
    2
 40
12.7
 49
0
 74
    0
 49
-12.7
 74
    0
  0
LTYPE
  5
36
330
5
100
AcDbSymbolTableRecord
100
AcDbLinetypeTableRecord
  2
DASHED
 70
    0
  3
Dashed _ _ _ _ _ _ _ _ _ _ _ _ _ _ _ _ _
 72
   65
 73
    2
 40
19.05
 49
12.7
 74
    0
 49
-6.35
 74
    0
  0
LTYPE
  5
37
330
5
100
AcDbSymbolTableRecord
100
AcDbLinetypeTableRecord
  2
DASHEDTINY
 70
    0
  3
Dashed (.15x) _ _ _ _ _ _ _ _ _ _ _ _ _ _ _ _ _
 72
   65
 73
    2
 40
2.8575
 49
1.905
 74
    0
 49
-0.9525
 74
    0
  0
LTYPE
  5
38
330
5
100
AcDbSymbolTableRecord
100
AcDbLinetypeTableRecord
  2
DASHED2
 70
    0
  3
Dashed (.5x) _ _ _ _ _ _ _ _ _ _ _ _ _ _ _ _ _
 72
   65
 73
    2
 40
9.524999999999999
 49
6.35
 74
    0
 49
-3.175
 74
    0
  0
LTYPE
  5
39
330
5
100
AcDbSymbolTableRecord
100
AcDbLinetypeTableRecord
  2
DASHEDX2
 70
    0
  3
Dashed (2x) ____  ____  ____  ____  ____  ___
 72
   65
 73
    2
 40
38.09999999999999
 49
25.4
 74
    0
 49
-12.7
 74
    0
  0
LTYPE
  5
3A
330
5
100
AcDbSymbolTableRecord
100
AcDbLinetypeTableRecord
  2
DASHDOT
 70
    0
  3
Dash dot __ . __ . __ . __ . __ . __ . __ . __
 72
   65
 73
    4
 40
25.4
 49
12.7
 74
    0
 49
-6.35
 74
    0
 49
0
 74
    0
 49
-6.35
 74
    0
  0
LTYPE
  5
3B
330
5
100
AcDbSymbolTableRecord
100
AcDbLinetypeTableRecord
  2
DASHDOTTINY
 70
    0
  3
Dash dot (.15x) _._._._._._._._._._._._._._._.
 72
   65
 73
    4
 40
3.81
 49
1.905
 74
    0
 49
-0.9525
 74
    0
 49
0
 74
    0
 49
-0.9525
 74
    0
  0
LTYPE
  5
3C
330
5
100
AcDbSymbolTableRecord
100
AcDbLinetypeTableRecord
  2
DASHDOT2
 70
    0
  3
Dash dot (.5x) _._._._._._._._._._._._._._._.
 72
   65
 73
    4
 40
12.7
 49
6.35
 74
    0
 49
-3.175
 74
    0
 49
0
 74
    0
 49
-3.175
 74
    0
  0
LTYPE
  5
3D
330
5
100
AcDbSymbolTableRecord
100
AcDbLinetypeTableRecord
  2
DASHDOTX2
 70
    0
  3
Dash dot (2x) ____  .  ____  .  ____  .  ___
 72
   65
 73
    4
 40
50.8
 49
25.4
 74
    0
 49
-12.7
 74
    0
 49
0
 74
    0
 49
-12.7
 74
    0
  0
LTYPE
  5
3E
330
5
100
AcDbSymbolTableRecord
100
AcDbLinetypeTableRecord
  2
DIVIDE
 70
    0
  3
Divide ____ . . ____ . . ____ . . ____ . . ____
 72
   65
 73
    6
 40
31.75
 49
12.7
 74
    0
 49
-6.35
 74
    0
 49
0
 74
    0
 49
-6.35
 74
    0
 49
0
 74
    0
 49
-6.35
 74
    0
  0
LTYPE
  5
3F
330
5
100
AcDbSymbolTableRecord
100
AcDbLinetypeTableRecord
  2
DIVIDETINY
 70
    0
  3
Divide (.15x) __..__..__..__..__..__..__..__.._
 72
   65
 73
    6
 40
4.7625
 49
1.905
 74
    0
 49
-0.9525
 74
    0
 49
0
 74
    0
 49
-0.9525
 74
    0
 49
0
 74
    0
 49
-0.9525
 74
    0
  0
LTYPE
  5
40
330
5
100
AcDbSymbolTableRecord
100
AcDbLinetypeTableRecord
  2
DIVIDE2
 70
    0
  3
Divide (.5x) __..__..__..__..__..__..__..__.._
 72
   65
 73
    6
 40
15.875
 49
6.35
 74
    0
 49
-3.175
 74
    0
 49
0
 74
    0
 49
-3.175
 74
    0
 49
0
 74
    0
 49
-3.175
 74
    0
  0
LTYPE
  5
41
330
5
100
AcDbSymbolTableRecord
100
AcDbLinetypeTableRecord
  2
DIVIDEX2
 70
    0
  3
Divide (2x) ________  .  .  ________  .  .  _
 72
   65
 73
    6
 40
63.5
 49
25.4
 74
    0
 49
-12.7
 74
    0
 49
0
 74
    0
 49
-12.7
 74
    0
 49
0
 74
    0
 49
-12.7
 74
    0
  0
LTYPE
  5
42
330
5
100
AcDbSymbolTableRecord
100
AcDbLinetypeTableRecord
  2
BORDER
 70
    0
  3
Border __ __ . __ __ . __ __ . __ __ . __ __ .
 72
   65
 73
    6
 40
44.45
 49
12.7
 74
    0
 49
-6.35
 74
    0
 49
12.7
 74
    0
 49
-6.35
 74
    0
 49
0
 74
    0
 49
-6.35
 74
    0
  0
LTYPE
  5
43
330
5
100
AcDbSymbolTableRecord
100
AcDbLinetypeTableRecord
  2
BORDERTINY
 70
    0
  3
Border (.15x) __.__.__.__.__.__.__.__.__.__.__.
 72
   65
 73
    6
 40
6.6675
 49
1.905
 74
    0
 49
-0.9525
 74
    0
 49
1.905
 74
    0
 49
-0.9525
 74
    0
 49
0
 74
    0
 49
-0.9525
 74
    0
  0
LTYPE
  5
44
330
5
100
AcDbSymbolTableRecord
100
AcDbLinetypeTableRecord
  2
BORDER2
 70
    0
  3
Border (.5x) __.__.__.__.__.__.__.__.__.__.__.
 72
   65
 73
    6
 40
22.225
 49
6.35
 74
    0
 49
-3.175
 74
    0
 49
6.35
 74
    0
 49
-3.175
 74
    0
 49
0
 74
    0
 49
-3.175
 74
    0
  0
LTYPE
  5
45
330
5
100
AcDbSymbolTableRecord
100
AcDbLinetypeTableRecord
  2
BORDERX2
 70
    0
  3
Border (2x) ____  ____  .  ____  ____  .  ___
 72
   65
 73
    6
 40
88.89999999999999
 49
25.4
 74
    0
 49
-12.7
 74
    0
 49
25.4
 74
    0
 49
-12.7
 74
    0
 49
0
 74
    0
 49
-12.7
 74
    0
  0
LTYPE
  5
46
330
5
100
AcDbSymbolTableRecord
100
AcDbLinetypeTableRecord
  2
CENTER
 70
    0
  3
Center ____ _ ____ _ ____ _ ____ _ ____ _ ____
 72
   65
 73
    4
 40
50.8
 49
31.75
 74
    0
 49
-6.35
 74
    0
 49
6.35
 74
    0
 49
-6.35
 74
    0
  0
LTYPE
  5
47
330
5
100
AcDbSymbolTableRecord
100
AcDbLinetypeTableRecord
  2
CENTERTINY
 70
    0
  3
Center (.15x) ___ _ ___ _ ___ _ ___ _ ___ _ ___
 72
   65
 73
    4
 40
7.62
 49
4.7625
 74
    0
 49
-0.9525
 74
    0
 49
0.9525
 74
    0
 49
-0.9525
 74
    0
  0
LTYPE
  5
48
330
5
100
AcDbSymbolTableRecord
100
AcDbLinetypeTableRecord
  2
CENTER2
 70
    0
  3
Center (.5x) ___ _ ___ _ ___ _ ___ _ ___ _ ___
 72
   65
 73
    4
 40
28.575
 49
19.05
 74
    0
 49
-3.175
 74
    0
 49
3.175
 74
    0
 49
-3.175
 74
    0
  0
LTYPE
  5
49
330
5
100
AcDbSymbolTableRecord
100
AcDbLinetypeTableRecord
  2
CENTERX2
 70
    0
  3
Center (2x) ________  __  ________  __  _____
 72
   65
 73
    4
 40
101.6
 49
63.5
 74
    0
 49
-12.7
 74
    0
 49
12.7
 74
    0
 49
-12.7
 74
    0
  0
ENDTAB
  0
TABLE
  2
LAYER
  5
2
330
0
100
AcDbSymbolTable
 70
    1
  0
LAYER
  5
10
330
2
100
AcDbSymbolTableRecord
100
AcDbLayerTableRecord
  2
0
 70
    0
 62
    7
  6
CONTINUOUS
370
   -3
390
F
  0
LAYER
  5
4A
330
2
100
AcDbSymbolTableRecord
100
AcDbLayerTableRecord
  2
Layer_1
 70
    0
 62
    7
  6
CONTINUOUS
370
   -3
390
F
  0
ENDTAB
  0
TABLE
  2
STYLE
  5
3
330
0
100
AcDbSymbolTable
 70
    3
  0
STYLE
  5
4B
330
2
100
AcDbSymbolTableRecord
100
AcDbTextStyleTableRecord
  2
Standard
 70
    0
 40
0
 41
1
 50
0
 71
    0
 42
1
  3
txt
  4

  0
ENDTAB
  0
TABLE
  2
VIEW
  5
6
330
0
100
AcDbSymbolTable
 70
    0
  0
ENDTAB
  0
TABLE
  2
UCS
  5
7
330
0
100
AcDbSymbolTable
 70
    0
  0
ENDTAB
  0
TABLE
  2
APPID
  5
9
330
0
100
AcDbSymbolTable
 70
    1
  0
APPID
  5
12
330
9
100
AcDbSymbolTableRecord
100
AcDbRegAppTableRecord
  2
ACAD
 70
    0
  0
APPID
  5
4C
330
9
100
AcDbSymbolTableRecord
100
AcDbRegAppTableRecord
  2
LibreCad
 70
    0
  0
ENDTAB
  0
TABLE
  2
DIMSTYLE
  5
A
330
0
100
AcDbSymbolTable
 70
    1
100
AcDbDimStyleTable
 71
    1
  0
DIMSTYLE
105
4D
330
A
100
AcDbSymbolTableRecord
100
AcDbDimStyleTableRecord
  2
Standard
 70
    0
 40
1
 41
2.5
 42
0.625
 43
0.38
 44
1.25
 45
0
 46
0
 47
0
 48
0
 49
1
140
2.5
141
0.09
142
2.5
143
25.4
144
1
145
0
146
1
147
0.625
148
0
 71
    0
 72
    0
 73
    0
 74
    1
 75
    0
 76
    0
 77
    0
 78
    1
 79
    0
170
    0
171
    2
172
    0
173
    0
174
    0
175
    0
176
    0
177
    0
178
    0
179
    0
271
    2
272
    4
273
    2
274
    2
275
    0
276
    0
277
    2
278
    0
279
    0
280
    0
281
    0
282
    0
283
    1
284
    0
285
    0
286
    0
288
    0
289
    3
340
standard
341

371
   -2
372
   -2
  0
ENDTAB
  0
TABLE
  2
BLOCK_RECORD
  5
1
330
0
100
AcDbSymbolTable
 70
    2
  0
BLOCK_RECORD
  5
1F
330
1
100
AcDbSymbolTableRecord
100
AcDbBlockTableRecord
  2
*Model_Space
 70
    0
280
    1
281
    0
  0
BLOCK_RECORD
  5
1E
330
1
100
AcDbSymbolTableRecord
100
AcDbBlockTableRecord
  2
*Paper_Space
 70
    0
280
    1
281
    0
  0
ENDTAB
  0
ENDSEC
  0
SECTION
  2
BLOCKS
  0
BLOCK
  5
20
330
1F
100
AcDbEntity
  8
0
100
AcDbBlockBegin
  2
*Model_Space
 70
    0
 10
0
 20
0
 30
0
  3
*Model_Space
  1

  0
ENDBLK
  5
21
330
1F
100
AcDbEntity
  8
0
100
AcDbBlockEnd
  0
BLOCK
  5
1C
330
1B
100
AcDbEntity
  8
0
100
AcDbBlockBegin
  2
*Paper_Space
 70
    0
 10
0
 20
0
 30
0
  3
*Paper_Space
  1

  0
ENDBLK
  5
1D
330
1F
100
AcDbEntity
  8
0
100
AcDbBlockEnd
  0
ENDSEC
  0
SECTION
  2
ENTITIES
  0
LWPOLYLINE
  5
4E
100
AcDbEntity
  8
Layer_1
  6
ByLayer
 62
    7
370
   -1
100
AcDbPolyline
 90
   16
 70
    1
 43
0
 10
68.03515899999999
 20
103.766596
 10
67.25059899999999
 20
107.660486
 10
65.107809
 20
110.840556
 10
61.928695
 20
112.984766
 10
58.03516
 20
113.771066
 10
54.141625
 20
112.984766
 10
50.962511
 20
110.840556
 10
48.819723
 20
107.660486
 10
48.035161
 20
103.766596
 10
48.819723
 20
99.87270599999999
 10
50.962511
 20
96.69263599999999
 10
54.141625
 20
94.54842600000001
 10
58.03516
 20
93.76212599999999
 10
61.928695
 20
94.54842600000001
 10
65.107809
 20
96.69263599999999
 10
67.25059899999999
 20
99.87270599999999
  0
LWPOLYLINE
  5
4F
100
AcDbEntity
  8
Layer_1
  6
ByLayer
 62
    7
370
   -1
100
AcDbPolyline
 90
   12
 70
    1
 43
0
 10
86.058429
 20
89.804896
 10
84.495929
 20
93.554896
 10
81.058429
 20
94.804896
 10
77.620929
 20
93.554896
 10
76.058429
 20
89.804896
 10
76.45134899999999
 20
87.858666
 10
77.522899
 20
86.26936600000001
 10
79.112199
 20
85.19782600000001
 10
81.058429
 20
84.804896
 10
83.004659
 20
85.19782600000001
 10
84.593959
 20
86.26936600000001
 10
85.665509
 20
87.858666
  0
LWPOLYLINE
  5
50
100
AcDbEntity
  8
Layer_1
  6
ByLayer
 62
    7
370
   -1
100
AcDbPolyline
 90
   16
 70
    1
 43
0
 10
129.714439
 20
47.903666
 10
128.928589
 20
51.796116
 10
126.785509
 20
54.974736
 10
123.606889
 20
57.117816
 10
119.714439
 20
57.903666
 10
115.821989
 20
57.117816
 10
112.643369
 20
54.974736
 10
110.500289
 20
51.796116
 10
109.714439
 20
47.903666
 10
110.500289
 20
44.011216
 10
112.643369
 20
40.832596
 10
115.821989
 20
38.689516
 10
119.714439
 20
37.903666
 10
123.606889
 20
38.689516
 10
126.785509
 20
40.832596
 10
128.928589
 20
44.011216
  0
LWPOLYLINE
  5
51
100
AcDbEntity
  8
Layer_1
  6
ByLayer
 62
    7
370
   -1
100
AcDbPolyline
 90
   12
 70
    1
 43
0
 10
46.58305
 20
126.773726
 10
45.022228
 20
130.525401
 10
41.585288
 20
131.775959
 10
38.147229
 20
130.525401
 10
36.583051
 20
126.773726
 10
36.975332
 20
124.826782
 10
38.046726
 20
123.236747
 10
39.636283
 20
122.164646
 10
41.58305
 20
121.771496
 10
43.529818
 20
122.164646
 10
45.119375
 20
123.236747
 10
46.190769
 20
124.826782
  0
LWPOLYLINE
  5
52
100
AcDbEntity
  8
Layer_1
  6
ByLayer
 62
    7
370
   -1
100
AcDbPolyline
 90
   16
 70
    1
 43
0
 10
48.824545
 20
86.867926
 10
48.038695
 20
90.76037599999999
 10
45.895613
 20
93.938996
 10
42.716996
 20
96.082076
 10
38.824544
 20
96.867926
 10
34.932093
 20
96.082076
 10
31.753476
 20
93.938996
 10
29.610394
 20
90.76037599999999
 10
28.824544
 20
86.867926
 10
29.610394
 20
82.975476
 10
31.753476
 20
79.79685600000001
 10
34.932093
 20
77.65377599999999
 10
38.824544
 20
76.867926
 10
42.716996
 20
77.65377599999999
 10
45.895613
 20
79.79685600000001
 10
48.038695
 20
82.975476
  0
LWPOLYLINE
  5
53
100
AcDbEntity
  8
Layer_1
  6
ByLayer
 62
    7
370
   -1
100
AcDbPolyline
 90
   12
 70
    1
 43
0
 10
23.103408
 20
106.119796
 10
21.540908
 20
109.869796
 10
18.103408
 20
111.119796
 10
14.665907
 20
109.869796
 10
13.103407
 20
106.119796
 10
13.496332
 20
104.173566
 10
14.567873
 20
102.584266
 10
16.157182
 20
101.512726
 10
18.103407
 20
101.119796
 10
20.049633
 20
101.512726
 10
21.638942
 20
102.584266
 10
22.710483
 20
104.173566
  0
LWPOLYLINE
  5
54
100
AcDbEntity
  8
Layer_1
  6
ByLayer
 62
    7
370
   -1
100
AcDbPolyline
 90
   12
 70
    1
 43
0
 10
54.736088
 20
62.252116
 10
53.174338
 20
66.002866
 10
49.737088
 20
67.25311600000001
 10
46.299338
 20
66.002866
 10
44.736088
 20
62.252116
 10
45.128514
 20
60.305336
 10
46.199942
 20
58.715466
 10
47.789442
 20
57.643486
 10
49.736088
 20
57.250386
 10
51.682734
 20
57.643486
 10
53.272234
 20
58.715466
 10
54.343662
 20
60.305336
  0
LWPOLYLINE
  5
55
100
AcDbEntity
  8
Layer_1
  6
ByLayer
 62
    7
370
   -1
100
AcDbPolyline
 90
   16
 70
    1
 43
0
 10
80.27356899999999
 20
47.996866
 10
79.487719
 20
51.889316
 10
77.344639
 20
55.067936
 10
74.16601900000001
 20
57.211016
 10
70.27356899999999
 20
57.996866
 10
66.381119
 20
57.211016
 10
63.202499
 20
55.067936
 10
61.059417
 20
51.889316
 10
60.273567
 20
47.996866
 10
61.059417
 20
44.104416
 10
63.202499
 20
40.925796
 10
66.381119
 20
38.782716
 10
70.27356899999999
 20
37.996866
 10
74.16601900000001
 20
38.782716
 10
77.344639
 20
40.925796
 10
79.487719
 20
44.104416
  0
LWPOLYLINE
  5
56
100
AcDbEntity
  8
Layer_1
  6
ByLayer
 62
    7
370
   -1
100
AcDbPolyline
 90
   16
 70
    1
 43
0
 10
102.578139
 20
67.61714600000001
 10
101.792289
 20
71.509596
 10
99.649209
 20
74.688216
 10
96.470589
 20
76.83129599999999
 10
92.57813899999999
 20
77.61714600000001
 10
88.685689
 20
76.83129599999999
 10
85.507069
 20
74.688216
 10
83.363989
 20
71.509596
 10
82.57813899999999
 20
67.61714600000001
 10
83.363989
 20
63.724696
 10
85.507069
 20
60.546076
 10
88.685689
 20
58.402996
 10
92.57813899999999
 20
57.617146
 10
96.470589
 20
58.402996
 10
99.649209
 20
60.546076
 10
101.792289
 20
63.724696
  0
LWPOLYLINE
  5
57
100
AcDbEntity
  8
Layer_1
  6
ByLayer
 62
    7
370
   -1
100
AcDbPolyline
 90
   16
 70
    1
 43
0
 10
96.365399
 20
18.568086
 10
95.579549
 20
22.460536
 10
93.436469
 20
25.639156
 10
90.25784899999999
 20
27.782236
 10
86.365399
 20
28.568086
 10
82.472949
 20
27.782236
 10
79.294329
 20
25.639156
 10
77.15124900000001
 20
22.460536
 10
76.365399
 20
18.568086
 10
77.15124900000001
 20
14.675636
 10
79.294329
 20
11.497016
 10
82.472949
 20
9.353935999999999
 10
86.365399
 20
8.568085999999999
 10
90.25784899999999
 20
9.353935999999999
 10
93.436469
 20
11.497016
 10
95.579549
 20
14.675636
  0
LWPOLYLINE
  5
58
100
AcDbEntity
  8
0
  6
ByLayer
 62
  256
370
   -1
100
AcDbPolyline
 90
  177
 70
    1
 43
0
 10
35.37513029790877
 20
65.7945224730959
 10
34.93960518351181
 20
65.5490027010171
 10
34.50485506001813
 20
65.30214744103924
 10
34.07088768607969
 20
65.05395097935619
 10
33.63771082034842
 20
64.80440760216173
 10
33.20533222147628
 20
64.55351159564968
 10
32.7737596481152
 20
64.30125724601389
 10
32.34300085891712
 20
64.04763883944815
 10
31.91306361253399
 20
63.79265066214628
 10
31.48395566761774
 20
63.5362870003021
 10
31.05568478282032
 20
63.27854214010942
 10
30.62825871679366
 20
63.01941036776208
 10
30.20168522818972
 20
62.75888596945386
 10
29.77597207566043
 20
62.4969632313786
 10
29.35112701785774
 20
62.23363643973012
 10
28.9271578134336
 20
61.96889988070222
 10
28.50407222103992
 20
61.70274784048874
 10
28.08187799932866
 20
61.43517460528348
 10
27.66058290695177
 20
61.16617446128026
 10
27.24019470256118
 20
60.89574169467289
 10
26.82072114480884
 20
60.6238705916552
 10
26.40216999234669
 20
60.350555438421
 10
25.98454900382666
 20
60.07579052116411
 10
25.56786593790071
 20
59.79957012607835
 10
25.15212855322078
 20
59.52188853935753
 10
24.7373446084388
 20
59.24274004719547
 10
24.32352186220671
 20
58.96211893578597
 10
23.91066807317647
 20
58.68001949132289
 10
23.498791
 20
58.396436
 10
0.154718
 20
123.925769
 10
26.211456
 20
146.846652
 10
88.22865899999999
 20
115.336246
 10
87.89485499140679
 20
114.9639202032829
 10
87.56239918931894
 20
114.5904336741298
 10
87.23128689701588
 20
114.2157949621027
 10
86.90151341777717
 20
113.8400126167635
 10
86.57307405488233
 20
113.4630951876741
 10
86.2459641116109
 20
113.0850512243967
 10
85.92017889124232
 20
112.7058892764929
 10
85.59571369705615
 20
112.3256178935249
 10
85.2725638323319
 20
111.9442456250545
 10
84.9507246003491
 20
111.5617810206438
 10
84.63019130438722
 20
111.1782326298546
 10
84.31095924772582
 20
110.793609002249
 10
83.99302373364439
 20
110.4079186873888
 10
83.67638006542244
 20
110.021170234836
 10
83.3610235463395
 20
109.6333721941526
 10
83.04694947967508
 20
109.2445331149005
 10
82.73415316870867
 20
108.8546615466416
 10
82.42262991671983
 20
108.4637660389379
 10
82.11237502698802
 20
108.0718551413514
 10
81.80338380279278
 20
107.678937403444
 10
81.49565154741364
 20
107.2850213747776
 10
81.1891735641301
 20
106.8901156049143
 10
80.88394515622167
 20
106.4942286434158
 10
80.57996162696787
 20
106.0973690398443
 10
80.27721827964822
 20
105.6995453437615
 10
79.97571041754222
 20
105.3007661047296
 10
79.67543334392938
 20
104.9010398723104
 10
79.37638236208923
 20
104.5003751960659
 10
79.07855277530126
 20
104.098780625558
 10
78.78193988684501
 20
103.6962647103488
 10
78.48653899999999
 20
103.292836
 10
77.987359
 20
101.837556
 10
78.200249
 20
100.420436
 10
79.040379
 20
99.259136
 10
80.422899
 20
98.571336
 10
84.618239
 20
97.874396
 10
88.81358899999999
 20
97.177466
 10
93.00892899999999
 20
96.480526
 10
97.204269
 20
95.783596
 10
98.648819
 20
95.029916
 10
99.482339
 20
93.763086
 10
99.60315900000001
 20
92.255926
 10
98.909569
 20
90.781226
 10
98.22091899999999
 20
90.032236
 10
97.53945899999999
 20
89.276736
 10
96.865099
 20
88.514886
 10
96.197779
 20
87.746836
 10
95.56376899999999
 20
86.277626
 10
95.718789
 20
84.79721600000001
 10
96.55919900000001
 20
83.562926
 10
97.981359
 20
82.83204600000001
 10
102.940009
 20
82.008306
 10
107.898659
 20
81.184566
 10
112.857319
 20
80.36083600000001
 10
117.815969
 20
79.53709600000001
 10
119.401769
 20
78.647266
 10
120.175639
 20
77.196016
 10
120.064859
 20
75.552796
 10
118.996709
 20
74.087036
 10
118.293039
 20
73.605366
 10
117.597039
 20
73.112736
 10
116.908669
 20
72.609506
 10
116.227869
 20
72.09601600000001
 10
115.395349
 20
70.94979600000001
 10
115.129989
 20
69.579176
 10
115.476569
 20
68.26654600000001
 10
116.479869
 20
67.294286
 10
119.694799
 20
66.391986
 10
123.012779
 20
65.808446
 10
126.364779
 20
65.330116
 10
129.681759
 20
64.743476
 10
131.977209
 20
64.342726
 10
134.435319
 20
64.020556
 10
136.531679
 20
63.191576
 10
137.741869
 20
61.270416
 10
136.704679
 20
51.927356
 10
135.516399
 20
42.588936
 10
134.279269
 20
33.252006
 10
133.095549
 20
23.913446
 10
132.695899
 20
21.426396
 10
132.673909
 20
18.956666
 10
132.990619
 20
16.502496
 10
133.607099
 20
14.062076
 10
133.445059
 20
10.615086
 10
133.013209
 20
7.156086
 10
132.493949
 20
3.693186
 10
132.069659
 20
0.234516
 10
129.905739
 20
0.228596
 10
127.741819
 20
0.222686
 10
125.577889
 20
0.216766
 10
123.413969
 20
0.210856
 10
120.881689
 20
0.132586
 10
118.425009
 20
0.488556
 10
116.026359
 20
1.177856
 10
113.668159
 20
2.099516
 10
104.782189
 20
2.243116
 10
95.87290900000001
 20
2.253886
 10
86.95609899999999
 20
2.221776
 10
78.047549
 20
2.236756
 10
75.619409
 20
2.282176
 10
73.062459
 20
2.146586
 10
70.70318899999999
 20
2.495536
 10
68.868059
 20
3.994586
 10
68.467359
 20
8.547446000000001
 10
68.27995900000001
 20
13.129056
 10
68.16216900000001
 20
17.720046
 10
67.970309
 20
22.301046
 10
67.633129
 20
24.208186
 10
66.340459
 20
25.518696
 10
64.573939
 20
25.922976
 10
62.815228
 20
25.111436
 10
62.219112
 20
24.501676
 10
61.632209
 20
23.883096
 10
61.054846
 20
23.255606
 10
60.487351
 20
22.619116
 10
58.89583
 20
21.739566
 10
57.254587
 20
21.845886
 10
55.915981
 20
22.805356
 10
55.232374
 20
24.485246
 10
55.047738
 20
29.508466
 10
54.863103
 20
34.531686
 10
54.678467
 20
39.554896
 10
54.493831
 20
44.578116
 10
53.96127
 20
46.087066
 10
52.841998
 20
47.068336
 10
51.386841
 20
47.403436
 10
49.846626
 20
46.973926
 10
48.999738
 20
46.410006
 10
48.158114
 20
45.838306
 10
47.321884
 20
45.258736
 10
46.491176
 20
44.671236
 10
44.93701
 20
44.182056
 10
43.451711
 20
44.487806
 10
42.300134
 20
45.467596
 10
41.747138
 20
47.000566
 10
41.590924
 20
51.250536
 10
41.43471
 20
55.500506
 10
41.278496
 20
59.750466
 10
41.122282
 20
64.00043599999999
 10
40.617794
 20
65.453886
 10
39.576283
 20
66.438176
 10
38.19877
 20
66.834266
 10
36.686278
 20
66.523126
 10
36.24847446480481
 20
66.28157840878117
 10
35.81142264455709
 20
66.03871247108188
  0
LWPOLYLINE
  5
59
100
AcDbEntity
  8
Layer_1
  6
ByLayer
 62
    7
370
   -1
100
AcDbPolyline
 90
   16
 70
    1
 43
0
 10
198.035159
 20
103.766596
 10
197.250599
 20
107.660486
 10
195.107809
 20
110.840556
 10
191.928695
 20
112.984766
 10
188.03516
 20
113.771066
 10
184.141625
 20
112.984766
 10
180.962511
 20
110.840556
 10
178.819723
 20
107.660486
 10
178.035161
 20
103.766596
 10
178.819723
 20
99.87270599999999
 10
180.962511
 20
96.69263599999999
 10
184.141625
 20
94.54842600000001
 10
188.03516
 20
93.76212599999999
 10
191.928695
 20
94.54842600000001
 10
195.107809
 20
96.69263599999999
 10
197.250599
 20
99.87270599999999
  0
LWPOLYLINE
  5
5A
100
AcDbEntity
  8
Layer_1
  6
ByLayer
 62
    7
370
   -1
100
AcDbPolyline
 90
   12
 70
    1
 43
0
 10
216.058429
 20
89.804896
 10
214.495929
 20
93.554896
 10
211.058429
 20
94.804896
 10
207.620929
 20
93.554896
 10
206.058429
 20
89.804896
 10
206.451349
 20
87.858666
 10
207.522899
 20
86.26936600000001
 10
209.112199
 20
85.19782600000001
 10
211.058429
 20
84.804896
 10
213.004659
 20
85.19782600000001
 10
214.593959
 20
86.26936600000001
 10
215.665509
 20
87.858666
  0
LWPOLYLINE
  5
5B
100
AcDbEntity
  8
Layer_1
  6
ByLayer
 62
    7
370
   -1
100
AcDbPolyline
 90
   16
 70
    1
 43
0
 10
259.714439
 20
47.903666
 10
258.928589
 20
51.796116
 10
256.785509
 20
54.974736
 10
253.606889
 20
57.117816
 10
249.714439
 20
57.903666
 10
245.821989
 20
57.117816
 10
242.643369
 20
54.974736
 10
240.500289
 20
51.796116
 10
239.714439
 20
47.903666
 10
240.500289
 20
44.011216
 10
242.643369
 20
40.832596
 10
245.821989
 20
38.689516
 10
249.714439
 20
37.903666
 10
253.606889
 20
38.689516
 10
256.785509
 20
40.832596
 10
258.928589
 20
44.011216
  0
LWPOLYLINE
  5
5C
100
AcDbEntity
  8
Layer_1
  6
ByLayer
 62
    7
370
   -1
100
AcDbPolyline
 90
   12
 70
    1
 43
0
 10
176.58305
 20
126.773726
 10
175.022228
 20
130.525401
 10
171.585288
 20
131.775959
 10
168.147229
 20
130.525401
 10
166.583051
 20
126.773726
 10
166.975332
 20
124.826782
 10
168.046726
 20
123.236747
 10
169.636283
 20
122.164646
 10
171.58305
 20
121.771496
 10
173.529818
 20
122.164646
 10
175.119375
 20
123.236747
 10
176.190769
 20
124.826782
  0
LWPOLYLINE
  5
5D
100
AcDbEntity
  8
Layer_1
  6
ByLayer
 62
    7
370
   -1
100
AcDbPolyline
 90
   16
 70
    1
 43
0
 10
178.824545
 20
86.867926
 10
178.038695
 20
90.76037599999999
 10
175.895613
 20
93.938996
 10
172.716996
 20
96.082076
 10
168.824544
 20
96.867926
 10
164.932093
 20
96.082076
 10
161.753476
 20
93.938996
 10
159.610394
 20
90.76037599999999
 10
158.824544
 20
86.867926
 10
159.610394
 20
82.975476
 10
161.753476
 20
79.79685600000001
 10
164.932093
 20
77.65377599999999
 10
168.824544
 20
76.867926
 10
172.716996
 20
77.65377599999999
 10
175.895613
 20
79.79685600000001
 10
178.038695
 20
82.975476
  0
LWPOLYLINE
  5
5E
100
AcDbEntity
  8
Layer_1
  6
ByLayer
 62
    7
370
   -1
100
AcDbPolyline
 90
   12
 70
    1
 43
0
 10
153.103408
 20
106.119796
 10
151.540908
 20
109.869796
 10
148.103408
 20
111.119796
 10
144.665907
 20
109.869796
 10
143.103407
 20
106.119796
 10
143.496332
 20
104.173566
 10
144.567873
 20
102.584266
 10
146.157182
 20
101.512726
 10
148.103407
 20
101.119796
 10
150.049633
 20
101.512726
 10
151.638942
 20
102.584266
 10
152.710483
 20
104.173566
  0
LWPOLYLINE
  5
5F
100
AcDbEntity
  8
Layer_1
  6
ByLayer
 62
    7
370
   -1
100
AcDbPolyline
 90
   12
 70
    1
 43
0
 10
184.736088
 20
62.252116
 10
183.174338
 20
66.002866
 10
179.737088
 20
67.25311600000001
 10
176.299338
 20
66.002866
 10
174.736088
 20
62.252116
 10
175.128514
 20
60.305336
 10
176.199942
 20
58.715466
 10
177.789442
 20
57.643486
 10
179.736088
 20
57.250386
 10
181.682734
 20
57.643486
 10
183.272234
 20
58.715466
 10
184.343662
 20
60.305336
  0
LWPOLYLINE
  5
60
100
AcDbEntity
  8
Layer_1
  6
ByLayer
 62
    7
370
   -1
100
AcDbPolyline
 90
   16
 70
    1
 43
0
 10
210.273569
 20
47.996866
 10
209.487719
 20
51.889316
 10
207.344639
 20
55.067936
 10
204.166019
 20
57.211016
 10
200.273569
 20
57.996866
 10
196.381119
 20
57.211016
 10
193.202499
 20
55.067936
 10
191.059417
 20
51.889316
 10
190.273567
 20
47.996866
 10
191.059417
 20
44.104416
 10
193.202499
 20
40.925796
 10
196.381119
 20
38.782716
 10
200.273569
 20
37.996866
 10
204.166019
 20
38.782716
 10
207.344639
 20
40.925796
 10
209.487719
 20
44.104416
  0
LWPOLYLINE
  5
61
100
AcDbEntity
  8
Layer_1
  6
ByLayer
 62
    7
370
   -1
100
AcDbPolyline
 90
   16
 70
    1
 43
0
 10
232.578139
 20
67.61714600000001
 10
231.792289
 20
71.509596
 10
229.649209
 20
74.688216
 10
226.470589
 20
76.83129599999999
 10
222.578139
 20
77.61714600000001
 10
218.685689
 20
76.83129599999999
 10
215.507069
 20
74.688216
 10
213.363989
 20
71.509596
 10
212.578139
 20
67.61714600000001
 10
213.363989
 20
63.724696
 10
215.507069
 20
60.546076
 10
218.685689
 20
58.402996
 10
222.578139
 20
57.617146
 10
226.470589
 20
58.402996
 10
229.649209
 20
60.546076
 10
231.792289
 20
63.724696
  0
LWPOLYLINE
  5
62
100
AcDbEntity
  8
Layer_1
  6
ByLayer
 62
    7
370
   -1
100
AcDbPolyline
 90
   16
 70
    1
 43
0
 10
226.365399
 20
18.568086
 10
225.579549
 20
22.460536
 10
223.436469
 20
25.639156
 10
220.257849
 20
27.782236
 10
216.365399
 20
28.568086
 10
212.472949
 20
27.782236
 10
209.294329
 20
25.639156
 10
207.151249
 20
22.460536
 10
206.365399
 20
18.568086
 10
207.151249
 20
14.675636
 10
209.294329
 20
11.497016
 10
212.472949
 20
9.353935999999999
 10
216.365399
 20
8.568085999999999
 10
220.257849
 20
9.353935999999999
 10
223.436469
 20
11.497016
 10
225.579549
 20
14.675636
  0
LWPOLYLINE
  5
63
100
AcDbEntity
  8
0
  6
ByLayer
 62
  256
370
   -1
100
AcDbPolyline
 90
  177
 70
    1
 43
0
 10
165.3751302979088
 20
65.7945224730959
 10
164.9396051835118
 20
65.5490027010171
 10
164.5048550600181
 20
65.30214744103924
 10
164.0708876860797
 20
65.05395097935619
 10
163.6377108203484
 20
64.80440760216173
 10
163.2053322214763
 20
64.55351159564968
 10
162.7737596481152
 20
64.30125724601389
 10
162.3430008589171
 20
64.04763883944815
 10
161.913063612534
 20
63.79265066214628
 10
161.4839556676177
 20
63.5362870003021
 10
161.0556847828203
 20
63.27854214010942
 10
160.6282587167937
 20
63.01941036776208
 10
160.2016852281897
 20
62.75888596945386
 10
159.7759720756604
 20
62.4969632313786
 10
159.3511270178577
 20
62.23363643973012
 10
158.9271578134336
 20
61.96889988070222
 10
158.5040722210399
 20
61.70274784048874
 10
158.0818779993287
 20
61.43517460528348
 10
157.6605829069518
 20
61.16617446128026
 10
157.2401947025612
 20
60.89574169467289
 10
156.8207211448088
 20
60.6238705916552
 10
156.4021699923467
 20
60.350555438421
 10
155.9845490038267
 20
60.07579052116411
 10
155.5678659379007
 20
59.79957012607835
 10
155.1521285532208
 20
59.52188853935753
 10
154.7373446084388
 20
59.24274004719547
 10
154.3235218622067
 20
58.96211893578597
 10
153.9106680731765
 20
58.68001949132289
 10
153.498791
 20
58.396436
 10
130.154718
 20
123.925769
 10
156.211456
 20
146.846652
 10
218.228659
 20
115.336246
 10
217.8948549914068
 20
114.9639202032829
 10
217.5623991893189
 20
114.5904336741298
 10
217.2312868970159
 20
114.2157949621027
 10
216.9015134177772
 20
113.8400126167635
 10
216.5730740548823
 20
113.4630951876741
 10
216.2459641116109
 20
113.0850512243967
 10
215.9201788912423
 20
112.7058892764929
 10
215.5957136970562
 20
112.3256178935249
 10
215.2725638323319
 20
111.9442456250545
 10
214.9507246003491
 20
111.5617810206438
 10
214.6301913043872
 20
111.1782326298546
 10
214.3109592477258
 20
110.793609002249
 10
213.9930237336444
 20
110.4079186873888
 10
213.6763800654224
 20
110.021170234836
 10
213.3610235463395
 20
109.6333721941526
 10
213.0469494796751
 20
109.2445331149005
 10
212.7341531687087
 20
108.8546615466416
 10
212.4226299167198
 20
108.4637660389379
 10
212.112375026988
 20
108.0718551413514
 10
211.8033838027928
 20
107.678937403444
 10
211.4956515474136
 20
107.2850213747776
 10
211.1891735641301
 20
106.8901156049143
 10
210.8839451562217
 20
106.4942286434158
 10
210.5799616269679
 20
106.0973690398443
 10
210.2772182796482
 20
105.6995453437615
 10
209.9757104175422
 20
105.3007661047296
 10
209.6754333439294
 20
104.9010398723104
 10
209.3763823620892
 20
104.5003751960659
 10
209.0785527753013
 20
104.098780625558
 10
208.781939886845
 20
103.6962647103488
 10
208.486539
 20
103.292836
 10
207.987359
 20
101.837556
 10
208.200249
 20
100.420436
 10
209.040379
 20
99.259136
 10
210.422899
 20
98.571336
 10
214.618239
 20
97.874396
 10
218.813589
 20
97.177466
 10
223.008929
 20
96.480526
 10
227.204269
 20
95.783596
 10
228.648819
 20
95.029916
 10
229.482339
 20
93.763086
 10
229.603159
 20
92.255926
 10
228.909569
 20
90.781226
 10
228.220919
 20
90.032236
 10
227.539459
 20
89.276736
 10
226.865099
 20
88.514886
 10
226.197779
 20
87.746836
 10
225.563769
 20
86.277626
 10
225.718789
 20
84.79721600000001
 10
226.559199
 20
83.562926
 10
227.981359
 20
82.83204600000001
 10
232.940009
 20
82.008306
 10
237.898659
 20
81.184566
 10
242.857319
 20
80.36083600000001
 10
247.815969
 20
79.53709600000001
 10
249.401769
 20
78.647266
 10
250.175639
 20
77.196016
 10
250.064859
 20
75.552796
 10
248.996709
 20
74.087036
 10
248.293039
 20
73.605366
 10
247.597039
 20
73.112736
 10
246.908669
 20
72.609506
 10
246.227869
 20
72.09601600000001
 10
245.395349
 20
70.94979600000001
 10
245.129989
 20
69.579176
 10
245.476569
 20
68.26654600000001
 10
246.479869
 20
67.294286
 10
249.694799
 20
66.391986
 10
253.012779
 20
65.808446
 10
256.364779
 20
65.330116
 10
259.681759
 20
64.743476
 10
261.977209
 20
64.342726
 10
264.435319
 20
64.020556
 10
266.531679
 20
63.191576
 10
267.741869
 20
61.270416
 10
266.704679
 20
51.927356
 10
265.516399
 20
42.588936
 10
264.279269
 20
33.252006
 10
263.095549
 20
23.913446
 10
262.695899
 20
21.426396
 10
262.673909
 20
18.956666
 10
262.990619
 20
16.502496
 10
263.607099
 20
14.062076
 10
263.445059
 20
10.615086
 10
263.013209
 20
7.156086
 10
262.493949
 20
3.693186
 10
262.069659
 20
0.234516
 10
259.905739
 20
0.228596
 10
257.741819
 20
0.222686
 10
255.577889
 20
0.216766
 10
253.413969
 20
0.210856
 10
250.881689
 20
0.132586
 10
248.425009
 20
0.488556
 10
246.026359
 20
1.177856
 10
243.668159
 20
2.099516
 10
234.782189
 20
2.243116
 10
225.872909
 20
2.253886
 10
216.956099
 20
2.221776
 10
208.047549
 20
2.236756
 10
205.619409
 20
2.282176
 10
203.062459
 20
2.146586
 10
200.703189
 20
2.495536
 10
198.868059
 20
3.994586
 10
198.467359
 20
8.547446000000001
 10
198.279959
 20
13.129056
 10
198.162169
 20
17.720046
 10
197.970309
 20
22.301046
 10
197.633129
 20
24.208186
 10
196.340459
 20
25.518696
 10
194.573939
 20
25.922976
 10
192.815228
 20
25.111436
 10
192.219112
 20
24.501676
 10
191.632209
 20
23.883096
 10
191.054846
 20
23.255606
 10
190.487351
 20
22.619116
 10
188.89583
 20
21.739566
 10
187.254587
 20
21.845886
 10
185.915981
 20
22.805356
 10
185.232374
 20
24.485246
 10
185.047738
 20
29.508466
 10
184.863103
 20
34.531686
 10
184.678467
 20
39.554896
 10
184.493831
 20
44.578116
 10
183.96127
 20
46.087066
 10
182.841998
 20
47.068336
 10
181.386841
 20
47.403436
 10
179.846626
 20
46.973926
 10
178.999738
 20
46.410006
 10
178.158114
 20
45.838306
 10
177.321884
 20
45.258736
 10
176.491176
 20
44.671236
 10
174.93701
 20
44.182056
 10
173.451711
 20
44.487806
 10
172.300134
 20
45.467596
 10
171.747138
 20
47.000566
 10
171.590924
 20
51.250536
 10
171.43471
 20
55.500506
 10
171.278496
 20
59.750466
 10
171.122282
 20
64.00043599999999
 10
170.617794
 20
65.453886
 10
169.576283
 20
66.438176
 10
168.19877
 20
66.834266
 10
166.686278
 20
66.523126
 10
166.2484744648048
 20
66.28157840878117
 10
165.8114226445571
 20
66.03871247108188
  0
LWPOLYLINE
  5
64
100
AcDbEntity
  8
Layer_1
  6
ByLayer
 62
    7
370
   -1
100
AcDbPolyline
 90
   16
 70
    1
 43
0
 10
68.03515899999999
 20
253.766596
 10
67.25059899999999
 20
257.660486
 10
65.107809
 20
260.840556
 10
61.928695
 20
262.984766
 10
58.03516
 20
263.771066
 10
54.141625
 20
262.984766
 10
50.962511
 20
260.840556
 10
48.819723
 20
257.660486
 10
48.035161
 20
253.766596
 10
48.819723
 20
249.872706
 10
50.962511
 20
246.692636
 10
54.141625
 20
244.548426
 10
58.03516
 20
243.762126
 10
61.928695
 20
244.548426
 10
65.107809
 20
246.692636
 10
67.25059899999999
 20
249.872706
  0
LWPOLYLINE
  5
65
100
AcDbEntity
  8
Layer_1
  6
ByLayer
 62
    7
370
   -1
100
AcDbPolyline
 90
   12
 70
    1
 43
0
 10
86.058429
 20
239.804896
 10
84.495929
 20
243.554896
 10
81.058429
 20
244.804896
 10
77.620929
 20
243.554896
 10
76.058429
 20
239.804896
 10
76.45134899999999
 20
237.858666
 10
77.522899
 20
236.269366
 10
79.112199
 20
235.197826
 10
81.058429
 20
234.804896
 10
83.004659
 20
235.197826
 10
84.593959
 20
236.269366
 10
85.665509
 20
237.858666
  0
LWPOLYLINE
  5
66
100
AcDbEntity
  8
Layer_1
  6
ByLayer
 62
    7
370
   -1
100
AcDbPolyline
 90
   16
 70
    1
 43
0
 10
129.714439
 20
197.903666
 10
128.928589
 20
201.796116
 10
126.785509
 20
204.974736
 10
123.606889
 20
207.117816
 10
119.714439
 20
207.903666
 10
115.821989
 20
207.117816
 10
112.643369
 20
204.974736
 10
110.500289
 20
201.796116
 10
109.714439
 20
197.903666
 10
110.500289
 20
194.011216
 10
112.643369
 20
190.832596
 10
115.821989
 20
188.689516
 10
119.714439
 20
187.903666
 10
123.606889
 20
188.689516
 10
126.785509
 20
190.832596
 10
128.928589
 20
194.011216
  0
LWPOLYLINE
  5
67
100
AcDbEntity
  8
Layer_1
  6
ByLayer
 62
    7
370
   -1
100
AcDbPolyline
 90
   12
 70
    1
 43
0
 10
46.58305
 20
276.773726
 10
45.022228
 20
280.525401
 10
41.585288
 20
281.775959
 10
38.147229
 20
280.525401
 10
36.583051
 20
276.773726
 10
36.975332
 20
274.826782
 10
38.046726
 20
273.236747
 10
39.636283
 20
272.164646
 10
41.58305
 20
271.771496
 10
43.529818
 20
272.164646
 10
45.119375
 20
273.236747
 10
46.190769
 20
274.826782
  0
LWPOLYLINE
  5
68
100
AcDbEntity
  8
Layer_1
  6
ByLayer
 62
    7
370
   -1
100
AcDbPolyline
 90
   16
 70
    1
 43
0
 10
48.824545
 20
236.867926
 10
48.038695
 20
240.760376
 10
45.895613
 20
243.938996
 10
42.716996
 20
246.082076
 10
38.824544
 20
246.867926
 10
34.932093
 20
246.082076
 10
31.753476
 20
243.938996
 10
29.610394
 20
240.760376
 10
28.824544
 20
236.867926
 10
29.610394
 20
232.975476
 10
31.753476
 20
229.796856
 10
34.932093
 20
227.653776
 10
38.824544
 20
226.867926
 10
42.716996
 20
227.653776
 10
45.895613
 20
229.796856
 10
48.038695
 20
232.975476
  0
LWPOLYLINE
  5
69
100
AcDbEntity
  8
Layer_1
  6
ByLayer
 62
    7
370
   -1
100
AcDbPolyline
 90
   12
 70
    1
 43
0
 10
23.103408
 20
256.119796
 10
21.540908
 20
259.869796
 10
18.103408
 20
261.119796
 10
14.665907
 20
259.869796
 10
13.103407
 20
256.119796
 10
13.496332
 20
254.173566
 10
14.567873
 20
252.584266
 10
16.157182
 20
251.512726
 10
18.103407
 20
251.119796
 10
20.049633
 20
251.512726
 10
21.638942
 20
252.584266
 10
22.710483
 20
254.173566
  0
LWPOLYLINE
  5
6A
100
AcDbEntity
  8
Layer_1
  6
ByLayer
 62
    7
370
   -1
100
AcDbPolyline
 90
   12
 70
    1
 43
0
 10
54.736088
 20
212.252116
 10
53.174338
 20
216.002866
 10
49.737088
 20
217.253116
 10
46.299338
 20
216.002866
 10
44.736088
 20
212.252116
 10
45.128514
 20
210.305336
 10
46.199942
 20
208.715466
 10
47.789442
 20
207.643486
 10
49.736088
 20
207.250386
 10
51.682734
 20
207.643486
 10
53.272234
 20
208.715466
 10
54.343662
 20
210.305336
  0
LWPOLYLINE
  5
6B
100
AcDbEntity
  8
Layer_1
  6
ByLayer
 62
    7
370
   -1
100
AcDbPolyline
 90
   16
 70
    1
 43
0
 10
80.27356899999999
 20
197.996866
 10
79.487719
 20
201.889316
 10
77.344639
 20
205.067936
 10
74.16601900000001
 20
207.211016
 10
70.27356899999999
 20
207.996866
 10
66.381119
 20
207.211016
 10
63.202499
 20
205.067936
 10
61.059417
 20
201.889316
 10
60.273567
 20
197.996866
 10
61.059417
 20
194.104416
 10
63.202499
 20
190.925796
 10
66.381119
 20
188.782716
 10
70.27356899999999
 20
187.996866
 10
74.16601900000001
 20
188.782716
 10
77.344639
 20
190.925796
 10
79.487719
 20
194.104416
  0
LWPOLYLINE
  5
6C
100
AcDbEntity
  8
Layer_1
  6
ByLayer
 62
    7
370
   -1
100
AcDbPolyline
 90
   16
 70
    1
 43
0
 10
102.578139
 20
217.617146
 10
101.792289
 20
221.509596
 10
99.649209
 20
224.688216
 10
96.470589
 20
226.831296
 10
92.57813899999999
 20
227.617146
 10
88.685689
 20
226.831296
 10
85.507069
 20
224.688216
 10
83.363989
 20
221.509596
 10
82.57813899999999
 20
217.617146
 10
83.363989
 20
213.724696
 10
85.507069
 20
210.546076
 10
88.685689
 20
208.402996
 10
92.57813899999999
 20
207.617146
 10
96.470589
 20
208.402996
 10
99.649209
 20
210.546076
 10
101.792289
 20
213.724696
  0
LWPOLYLINE
  5
6D
100
AcDbEntity
  8
Layer_1
  6
ByLayer
 62
    7
370
   -1
100
AcDbPolyline
 90
   16
 70
    1
 43
0
 10
96.365399
 20
168.568086
 10
95.579549
 20
172.460536
 10
93.436469
 20
175.639156
 10
90.25784899999999
 20
177.782236
 10
86.365399
 20
178.568086
 10
82.472949
 20
177.782236
 10
79.294329
 20
175.639156
 10
77.15124900000001
 20
172.460536
 10
76.365399
 20
168.568086
 10
77.15124900000001
 20
164.675636
 10
79.294329
 20
161.497016
 10
82.472949
 20
159.353936
 10
86.365399
 20
158.568086
 10
90.25784899999999
 20
159.353936
 10
93.436469
 20
161.497016
 10
95.579549
 20
164.675636
  0
LWPOLYLINE
  5
6E
100
AcDbEntity
  8
0
  6
ByLayer
 62
  256
370
   -1
100
AcDbPolyline
 90
  177
 70
    1
 43
0
 10
35.37513029790877
 20
215.7945224730959
 10
34.93960518351181
 20
215.5490027010171
 10
34.50485506001813
 20
215.3021474410392
 10
34.07088768607969
 20
215.0539509793562
 10
33.63771082034842
 20
214.8044076021617
 10
33.20533222147628
 20
214.5535115956497
 10
32.7737596481152
 20
214.3012572460139
 10
32.34300085891712
 20
214.0476388394482
 10
31.91306361253399
 20
213.7926506621463
 10
31.48395566761774
 20
213.5362870003021
 10
31.05568478282032
 20
213.2785421401094
 10
30.62825871679366
 20
213.0194103677621
 10
30.20168522818972
 20
212.7588859694539
 10
29.77597207566043
 20
212.4969632313786
 10
29.35112701785774
 20
212.2336364397301
 10
28.9271578134336
 20
211.9688998807022
 10
28.50407222103992
 20
211.7027478404887
 10
28.08187799932866
 20
211.4351746052835
 10
27.66058290695177
 20
211.1661744612803
 10
27.24019470256118
 20
210.8957416946729
 10
26.82072114480884
 20
210.6238705916552
 10
26.40216999234669
 20
210.350555438421
 10
25.98454900382666
 20
210.0757905211641
 10
25.56786593790071
 20
209.7995701260784
 10
25.15212855322078
 20
209.5218885393575
 10
24.7373446084388
 20
209.2427400471955
 10
24.32352186220671
 20
208.962118935786
 10
23.91066807317647
 20
208.6800194913229
 10
23.498791
 20
208.396436
 10
0.154718
 20
273.925769
 10
26.211456
 20
296.846652
 10
88.22865899999999
 20
265.336246
 10
87.89485499140679
 20
264.9639202032829
 10
87.56239918931894
 20
264.5904336741298
 10
87.23128689701588
 20
264.2157949621027
 10
86.90151341777717
 20
263.8400126167635
 10
86.57307405488233
 20
263.4630951876741
 10
86.2459641116109
 20
263.0850512243966
 10
85.92017889124232
 20
262.7058892764929
 10
85.59571369705615
 20
262.3256178935249
 10
85.2725638323319
 20
261.9442456250545
 10
84.9507246003491
 20
261.5617810206438
 10
84.63019130438722
 20
261.1782326298546
 10
84.31095924772582
 20
260.793609002249
 10
83.99302373364439
 20
260.4079186873888
 10
83.67638006542244
 20
260.021170234836
 10
83.3610235463395
 20
259.6333721941526
 10
83.04694947967508
 20
259.2445331149005
 10
82.73415316870867
 20
258.8546615466416
 10
82.42262991671983
 20
258.4637660389379
 10
82.11237502698802
 20
258.0718551413514
 10
81.80338380279278
 20
257.678937403444
 10
81.49565154741364
 20
257.2850213747776
 10
81.1891735641301
 20
256.8901156049143
 10
80.88394515622167
 20
256.4942286434158
 10
80.57996162696787
 20
256.0973690398442
 10
80.27721827964822
 20
255.6995453437615
 10
79.97571041754222
 20
255.3007661047296
 10
79.67543334392938
 20
254.9010398723104
 10
79.37638236208923
 20
254.5003751960659
 10
79.07855277530126
 20
254.098780625558
 10
78.78193988684501
 20
253.6962647103488
 10
78.48653899999999
 20
253.292836
 10
77.987359
 20
251.837556
 10
78.200249
 20
250.420436
 10
79.040379
 20
249.259136
 10
80.422899
 20
248.571336
 10
84.618239
 20
247.874396
 10
88.81358899999999
 20
247.177466
 10
93.00892899999999
 20
246.480526
 10
97.204269
 20
245.783596
 10
98.648819
 20
245.029916
 10
99.482339
 20
243.763086
 10
99.60315900000001
 20
242.255926
 10
98.909569
 20
240.781226
 10
98.22091899999999
 20
240.032236
 10
97.53945899999999
 20
239.276736
 10
96.865099
 20
238.514886
 10
96.197779
 20
237.746836
 10
95.56376899999999
 20
236.277626
 10
95.718789
 20
234.797216
 10
96.55919900000001
 20
233.562926
 10
97.981359
 20
232.832046
 10
102.940009
 20
232.008306
 10
107.898659
 20
231.184566
 10
112.857319
 20
230.360836
 10
117.815969
 20
229.537096
 10
119.401769
 20
228.647266
 10
120.175639
 20
227.196016
 10
120.064859
 20
225.552796
 10
118.996709
 20
224.087036
 10
118.293039
 20
223.605366
 10
117.597039
 20
223.112736
 10
116.908669
 20
222.609506
 10
116.227869
 20
222.096016
 10
115.395349
 20
220.949796
 10
115.129989
 20
219.579176
 10
115.476569
 20
218.266546
 10
116.479869
 20
217.294286
 10
119.694799
 20
216.391986
 10
123.012779
 20
215.808446
 10
126.364779
 20
215.330116
 10
129.681759
 20
214.743476
 10
131.977209
 20
214.342726
 10
134.435319
 20
214.020556
 10
136.531679
 20
213.191576
 10
137.741869
 20
211.270416
 10
136.704679
 20
201.927356
 10
135.516399
 20
192.588936
 10
134.279269
 20
183.252006
 10
133.095549
 20
173.913446
 10
132.695899
 20
171.426396
 10
132.673909
 20
168.956666
 10
132.990619
 20
166.502496
 10
133.607099
 20
164.062076
 10
133.445059
 20
160.615086
 10
133.013209
 20
157.156086
 10
132.493949
 20
153.693186
 10
132.069659
 20
150.234516
 10
129.905739
 20
150.228596
 10
127.741819
 20
150.222686
 10
125.577889
 20
150.216766
 10
123.413969
 20
150.210856
 10
120.881689
 20
150.132586
 10
118.425009
 20
150.488556
 10
116.026359
 20
151.177856
 10
113.668159
 20
152.099516
 10
104.782189
 20
152.243116
 10
95.87290900000001
 20
152.253886
 10
86.95609899999999
 20
152.221776
 10
78.047549
 20
152.236756
 10
75.619409
 20
152.282176
 10
73.062459
 20
152.146586
 10
70.70318899999999
 20
152.495536
 10
68.868059
 20
153.994586
 10
68.467359
 20
158.547446
 10
68.27995900000001
 20
163.129056
 10
68.16216900000001
 20
167.720046
 10
67.970309
 20
172.301046
 10
67.633129
 20
174.208186
 10
66.340459
 20
175.518696
 10
64.573939
 20
175.922976
 10
62.815228
 20
175.111436
 10
62.219112
 20
174.501676
 10
61.632209
 20
173.883096
 10
61.054846
 20
173.255606
 10
60.487351
 20
172.619116
 10
58.89583
 20
171.739566
 10
57.254587
 20
171.845886
 10
55.915981
 20
172.805356
 10
55.232374
 20
174.485246
 10
55.047738
 20
179.508466
 10
54.863103
 20
184.531686
 10
54.678467
 20
189.554896
 10
54.493831
 20
194.578116
 10
53.96127
 20
196.087066
 10
52.841998
 20
197.068336
 10
51.386841
 20
197.403436
 10
49.846626
 20
196.973926
 10
48.999738
 20
196.410006
 10
48.158114
 20
195.838306
 10
47.321884
 20
195.258736
 10
46.491176
 20
194.671236
 10
44.93701
 20
194.182056
 10
43.451711
 20
194.487806
 10
42.300134
 20
195.467596
 10
41.747138
 20
197.000566
 10
41.590924
 20
201.250536
 10
41.43471
 20
205.500506
 10
41.278496
 20
209.750466
 10
41.122282
 20
214.000436
 10
40.617794
 20
215.453886
 10
39.576283
 20
216.438176
 10
38.19877
 20
216.834266
 10
36.686278
 20
216.523126
 10
36.24847446480481
 20
216.2815784087812
 10
35.81142264455709
 20
216.0387124710819
  0
LWPOLYLINE
  5
6F
100
AcDbEntity
  8
Layer_1
  6
ByLayer
 62
    7
370
   -1
100
AcDbPolyline
 90
   16
 70
    1
 43
0
 10
198.035159
 20
253.766596
 10
197.250599
 20
257.660486
 10
195.107809
 20
260.840556
 10
191.928695
 20
262.984766
 10
188.03516
 20
263.771066
 10
184.141625
 20
262.984766
 10
180.962511
 20
260.840556
 10
178.819723
 20
257.660486
 10
178.035161
 20
253.766596
 10
178.819723
 20
249.872706
 10
180.962511
 20
246.692636
 10
184.141625
 20
244.548426
 10
188.03516
 20
243.762126
 10
191.928695
 20
244.548426
 10
195.107809
 20
246.692636
 10
197.250599
 20
249.872706
  0
LWPOLYLINE
  5
70
100
AcDbEntity
  8
Layer_1
  6
ByLayer
 62
    7
370
   -1
100
AcDbPolyline
 90
   12
 70
    1
 43
0
 10
216.058429
 20
239.804896
 10
214.495929
 20
243.554896
 10
211.058429
 20
244.804896
 10
207.620929
 20
243.554896
 10
206.058429
 20
239.804896
 10
206.451349
 20
237.858666
 10
207.522899
 20
236.269366
 10
209.112199
 20
235.197826
 10
211.058429
 20
234.804896
 10
213.004659
 20
235.197826
 10
214.593959
 20
236.269366
 10
215.665509
 20
237.858666
  0
LWPOLYLINE
  5
71
100
AcDbEntity
  8
Layer_1
  6
ByLayer
 62
    7
370
   -1
100
AcDbPolyline
 90
   16
 70
    1
 43
0
 10
259.714439
 20
197.903666
 10
258.928589
 20
201.796116
 10
256.785509
 20
204.974736
 10
253.606889
 20
207.117816
 10
249.714439
 20
207.903666
 10
245.821989
 20
207.117816
 10
242.643369
 20
204.974736
 10
240.500289
 20
201.796116
 10
239.714439
 20
197.903666
 10
240.500289
 20
194.011216
 10
242.643369
 20
190.832596
 10
245.821989
 20
188.689516
 10
249.714439
 20
187.903666
 10
253.606889
 20
188.689516
 10
256.785509
 20
190.832596
 10
258.928589
 20
194.011216
  0
LWPOLYLINE
  5
72
100
AcDbEntity
  8
Layer_1
  6
ByLayer
 62
    7
370
   -1
100
AcDbPolyline
 90
   12
 70
    1
 43
0
 10
176.58305
 20
276.773726
 10
175.022228
 20
280.525401
 10
171.585288
 20
281.775959
 10
168.147229
 20
280.525401
 10
166.583051
 20
276.773726
 10
166.975332
 20
274.826782
 10
168.046726
 20
273.236747
 10
169.636283
 20
272.164646
 10
171.58305
 20
271.771496
 10
173.529818
 20
272.164646
 10
175.119375
 20
273.236747
 10
176.190769
 20
274.826782
  0
LWPOLYLINE
  5
73
100
AcDbEntity
  8
Layer_1
  6
ByLayer
 62
    7
370
   -1
100
AcDbPolyline
 90
   16
 70
    1
 43
0
 10
178.824545
 20
236.867926
 10
178.038695
 20
240.760376
 10
175.895613
 20
243.938996
 10
172.716996
 20
246.082076
 10
168.824544
 20
246.867926
 10
164.932093
 20
246.082076
 10
161.753476
 20
243.938996
 10
159.610394
 20
240.760376
 10
158.824544
 20
236.867926
 10
159.610394
 20
232.975476
 10
161.753476
 20
229.796856
 10
164.932093
 20
227.653776
 10
168.824544
 20
226.867926
 10
172.716996
 20
227.653776
 10
175.895613
 20
229.796856
 10
178.038695
 20
232.975476
  0
LWPOLYLINE
  5
74
100
AcDbEntity
  8
Layer_1
  6
ByLayer
 62
    7
370
   -1
100
AcDbPolyline
 90
   12
 70
    1
 43
0
 10
153.103408
 20
256.119796
 10
151.540908
 20
259.869796
 10
148.103408
 20
261.119796
 10
144.665907
 20
259.869796
 10
143.103407
 20
256.119796
 10
143.496332
 20
254.173566
 10
144.567873
 20
252.584266
 10
146.157182
 20
251.512726
 10
148.103407
 20
251.119796
 10
150.049633
 20
251.512726
 10
151.638942
 20
252.584266
 10
152.710483
 20
254.173566
  0
LWPOLYLINE
  5
75
100
AcDbEntity
  8
Layer_1
  6
ByLayer
 62
    7
370
   -1
100
AcDbPolyline
 90
   12
 70
    1
 43
0
 10
184.736088
 20
212.252116
 10
183.174338
 20
216.002866
 10
179.737088
 20
217.253116
 10
176.299338
 20
216.002866
 10
174.736088
 20
212.252116
 10
175.128514
 20
210.305336
 10
176.199942
 20
208.715466
 10
177.789442
 20
207.643486
 10
179.736088
 20
207.250386
 10
181.682734
 20
207.643486
 10
183.272234
 20
208.715466
 10
184.343662
 20
210.305336
  0
LWPOLYLINE
  5
76
100
AcDbEntity
  8
Layer_1
  6
ByLayer
 62
    7
370
   -1
100
AcDbPolyline
 90
   16
 70
    1
 43
0
 10
210.273569
 20
197.996866
 10
209.487719
 20
201.889316
 10
207.344639
 20
205.067936
 10
204.166019
 20
207.211016
 10
200.273569
 20
207.996866
 10
196.381119
 20
207.211016
 10
193.202499
 20
205.067936
 10
191.059417
 20
201.889316
 10
190.273567
 20
197.996866
 10
191.059417
 20
194.104416
 10
193.202499
 20
190.925796
 10
196.381119
 20
188.782716
 10
200.273569
 20
187.996866
 10
204.166019
 20
188.782716
 10
207.344639
 20
190.925796
 10
209.487719
 20
194.104416
  0
LWPOLYLINE
  5
77
100
AcDbEntity
  8
Layer_1
  6
ByLayer
 62
    7
370
   -1
100
AcDbPolyline
 90
   16
 70
    1
 43
0
 10
232.578139
 20
217.617146
 10
231.792289
 20
221.509596
 10
229.649209
 20
224.688216
 10
226.470589
 20
226.831296
 10
222.578139
 20
227.617146
 10
218.685689
 20
226.831296
 10
215.507069
 20
224.688216
 10
213.363989
 20
221.509596
 10
212.578139
 20
217.617146
 10
213.363989
 20
213.724696
 10
215.507069
 20
210.546076
 10
218.685689
 20
208.402996
 10
222.578139
 20
207.617146
 10
226.470589
 20
208.402996
 10
229.649209
 20
210.546076
 10
231.792289
 20
213.724696
  0
LWPOLYLINE
  5
78
100
AcDbEntity
  8
Layer_1
  6
ByLayer
 62
    7
370
   -1
100
AcDbPolyline
 90
   16
 70
    1
 43
0
 10
226.365399
 20
168.568086
 10
225.579549
 20
172.460536
 10
223.436469
 20
175.639156
 10
220.257849
 20
177.782236
 10
216.365399
 20
178.568086
 10
212.472949
 20
177.782236
 10
209.294329
 20
175.639156
 10
207.151249
 20
172.460536
 10
206.365399
 20
168.568086
 10
207.151249
 20
164.675636
 10
209.294329
 20
161.497016
 10
212.472949
 20
159.353936
 10
216.365399
 20
158.568086
 10
220.257849
 20
159.353936
 10
223.436469
 20
161.497016
 10
225.579549
 20
164.675636
  0
LWPOLYLINE
  5
79
100
AcDbEntity
  8
0
  6
ByLayer
 62
  256
370
   -1
100
AcDbPolyline
 90
  177
 70
    1
 43
0
 10
165.3751302979088
 20
215.7945224730959
 10
164.9396051835118
 20
215.5490027010171
 10
164.5048550600181
 20
215.3021474410392
 10
164.0708876860797
 20
215.0539509793562
 10
163.6377108203484
 20
214.8044076021617
 10
163.2053322214763
 20
214.5535115956497
 10
162.7737596481152
 20
214.3012572460139
 10
162.3430008589171
 20
214.0476388394482
 10
161.913063612534
 20
213.7926506621463
 10
161.4839556676177
 20
213.5362870003021
 10
161.0556847828203
 20
213.2785421401094
 10
160.6282587167937
 20
213.0194103677621
 10
160.2016852281897
 20
212.7588859694539
 10
159.7759720756604
 20
212.4969632313786
 10
159.3511270178577
 20
212.2336364397301
 10
158.9271578134336
 20
211.9688998807022
 10
158.5040722210399
 20
211.7027478404887
 10
158.0818779993287
 20
211.4351746052835
 10
157.6605829069518
 20
211.1661744612803
 10
157.2401947025612
 20
210.8957416946729
 10
156.8207211448088
 20
210.6238705916552
 10
156.4021699923467
 20
210.350555438421
 10
155.9845490038267
 20
210.0757905211641
 10
155.5678659379007
 20
209.7995701260784
 10
155.1521285532208
 20
209.5218885393575
 10
154.7373446084388
 20
209.2427400471955
 10
154.3235218622067
 20
208.962118935786
 10
153.9106680731765
 20
208.6800194913229
 10
153.498791
 20
208.396436
 10
130.154718
 20
273.925769
 10
156.211456
 20
296.846652
 10
218.228659
 20
265.336246
 10
217.8948549914068
 20
264.9639202032829
 10
217.5623991893189
 20
264.5904336741298
 10
217.2312868970159
 20
264.2157949621027
 10
216.9015134177772
 20
263.8400126167635
 10
216.5730740548823
 20
263.4630951876741
 10
216.2459641116109
 20
263.0850512243966
 10
215.9201788912423
 20
262.7058892764929
 10
215.5957136970562
 20
262.3256178935249
 10
215.2725638323319
 20
261.9442456250545
 10
214.9507246003491
 20
261.5617810206438
 10
214.6301913043872
 20
261.1782326298546
 10
214.3109592477258
 20
260.793609002249
 10
213.9930237336444
 20
260.4079186873888
 10
213.6763800654224
 20
260.021170234836
 10
213.3610235463395
 20
259.6333721941526
 10
213.0469494796751
 20
259.2445331149005
 10
212.7341531687087
 20
258.8546615466416
 10
212.4226299167198
 20
258.4637660389379
 10
212.112375026988
 20
258.0718551413514
 10
211.8033838027928
 20
257.678937403444
 10
211.4956515474136
 20
257.2850213747776
 10
211.1891735641301
 20
256.8901156049143
 10
210.8839451562217
 20
256.4942286434158
 10
210.5799616269679
 20
256.0973690398442
 10
210.2772182796482
 20
255.6995453437615
 10
209.9757104175422
 20
255.3007661047296
 10
209.6754333439294
 20
254.9010398723104
 10
209.3763823620892
 20
254.5003751960659
 10
209.0785527753013
 20
254.098780625558
 10
208.781939886845
 20
253.6962647103488
 10
208.486539
 20
253.292836
 10
207.987359
 20
251.837556
 10
208.200249
 20
250.420436
 10
209.040379
 20
249.259136
 10
210.422899
 20
248.571336
 10
214.618239
 20
247.874396
 10
218.813589
 20
247.177466
 10
223.008929
 20
246.480526
 10
227.204269
 20
245.783596
 10
228.648819
 20
245.029916
 10
229.482339
 20
243.763086
 10
229.603159
 20
242.255926
 10
228.909569
 20
240.781226
 10
228.220919
 20
240.032236
 10
227.539459
 20
239.276736
 10
226.865099
 20
238.514886
 10
226.197779
 20
237.746836
 10
225.563769
 20
236.277626
 10
225.718789
 20
234.797216
 10
226.559199
 20
233.562926
 10
227.981359
 20
232.832046
 10
232.940009
 20
232.008306
 10
237.898659
 20
231.184566
 10
242.857319
 20
230.360836
 10
247.815969
 20
229.537096
 10
249.401769
 20
228.647266
 10
250.175639
 20
227.196016
 10
250.064859
 20
225.552796
 10
248.996709
 20
224.087036
 10
248.293039
 20
223.605366
 10
247.597039
 20
223.112736
 10
246.908669
 20
222.609506
 10
246.227869
 20
222.096016
 10
245.395349
 20
220.949796
 10
245.129989
 20
219.579176
 10
245.476569
 20
218.266546
 10
246.479869
 20
217.294286
 10
249.694799
 20
216.391986
 10
253.012779
 20
215.808446
 10
256.364779
 20
215.330116
 10
259.681759
 20
214.743476
 10
261.977209
 20
214.342726
 10
264.435319
 20
214.020556
 10
266.531679
 20
213.191576
 10
267.741869
 20
211.270416
 10
266.704679
 20
201.927356
 10
265.516399
 20
192.588936
 10
264.279269
 20
183.252006
 10
263.095549
 20
173.913446
 10
262.695899
 20
171.426396
 10
262.673909
 20
168.956666
 10
262.990619
 20
166.502496
 10
263.607099
 20
164.062076
 10
263.445059
 20
160.615086
 10
263.013209
 20
157.156086
 10
262.493949
 20
153.693186
 10
262.069659
 20
150.234516
 10
259.905739
 20
150.228596
 10
257.741819
 20
150.222686
 10
255.577889
 20
150.216766
 10
253.413969
 20
150.210856
 10
250.881689
 20
150.132586
 10
248.425009
 20
150.488556
 10
246.026359
 20
151.177856
 10
243.668159
 20
152.099516
 10
234.782189
 20
152.243116
 10
225.872909
 20
152.253886
 10
216.956099
 20
152.221776
 10
208.047549
 20
152.236756
 10
205.619409
 20
152.282176
 10
203.062459
 20
152.146586
 10
200.703189
 20
152.495536
 10
198.868059
 20
153.994586
 10
198.467359
 20
158.547446
 10
198.279959
 20
163.129056
 10
198.162169
 20
167.720046
 10
197.970309
 20
172.301046
 10
197.633129
 20
174.208186
 10
196.340459
 20
175.518696
 10
194.573939
 20
175.922976
 10
192.815228
 20
175.111436
 10
192.219112
 20
174.501676
 10
191.632209
 20
173.883096
 10
191.054846
 20
173.255606
 10
190.487351
 20
172.619116
 10
188.89583
 20
171.739566
 10
187.254587
 20
171.845886
 10
185.915981
 20
172.805356
 10
185.232374
 20
174.485246
 10
185.047738
 20
179.508466
 10
184.863103
 20
184.531686
 10
184.678467
 20
189.554896
 10
184.493831
 20
194.578116
 10
183.96127
 20
196.087066
 10
182.841998
 20
197.068336
 10
181.386841
 20
197.403436
 10
179.846626
 20
196.973926
 10
178.999738
 20
196.410006
 10
178.158114
 20
195.838306
 10
177.321884
 20
195.258736
 10
176.491176
 20
194.671236
 10
174.93701
 20
194.182056
 10
173.451711
 20
194.487806
 10
172.300134
 20
195.467596
 10
171.747138
 20
197.000566
 10
171.590924
 20
201.250536
 10
171.43471
 20
205.500506
 10
171.278496
 20
209.750466
 10
171.122282
 20
214.000436
 10
170.617794
 20
215.453886
 10
169.576283
 20
216.438176
 10
168.19877
 20
216.834266
 10
166.686278
 20
216.523126
 10
166.2484744648048
 20
216.2815784087812
 10
165.8114226445571
 20
216.0387124710819
  0
ENDSEC
  0
SECTION
  2
OBJECTS
  0
DICTIONARY
  5
C
330
0
100
AcDbDictionary
281
    1
  3
ACAD_GROUP
350
D
  0
DICTIONARY
  5
D
330
C
100
AcDbDictionary
281
    1
  0
ENDSEC
  0
EOF
