<?xml version="1.0" standalone="no"?>
<!DOCTYPE svg PUBLIC "-//W3C//DTD SVG 20010904//EN"
 "http://www.w3.org/TR/2001/REC-SVG-20010904/DTD/svg10.dtd">
<svg version="1.0" xmlns="http://www.w3.org/2000/svg"
 width="512.000000pt" height="465.000000pt" viewBox="0 0 512.000000 465.000000"
 preserveAspectRatio="xMidYMid meet">
<metadata>
Created by potrace 1.15, written by Peter Selinger 2001-2017
</metadata>
<g transform="translate(0.000000,465.000000) scale(0.100000,-0.100000)"
fill="#000000" stroke="none">
<path d="M3172 4628 c-29 -32 -37 -72 -19 -105 8 -15 45 -77 82 -138 85 -138
199 -364 258 -515 181 -461 224 -927 121 -1310 -21 -81 -77 -230 -85 -230 -13
0 -358 251 -566 411 -399 307 -1031 826 -1546 1268 -126 108 -238 200 -250
204 -29 11 -67 0 -94 -25 -17 -16 -23 -33 -23 -63 0 -37 14 -63 126 -226 232
-337 465 -657 653 -894 52 -66 88 -115 80 -109 -8 6 -70 53 -139 105 -174 130
-470 368 -824 663 -166 137 -313 256 -329 264 -57 29 -127 -17 -127 -83 0 -72
338 -556 637 -915 386 -461 904 -987 1398 -1420 77 -67 146 -128 153 -135 25
-23 -241 -111 -463 -151 -136 -25 -467 -30 -637 -10 -304 35 -613 118 -922
247 -144 61 -371 174 -463 231 -81 50 -128 55 -167 19 -20 -19 -26 -34 -26
-67 0 -35 9 -55 56 -120 218 -304 482 -551 932 -874 516 -370 987 -567 1510
-634 142 -18 463 -21 592 -6 219 27 451 91 623 173 112 53 176 94 285 181 120
95 210 116 347 81 139 -36 346 -161 523 -315 77 -67 100 -82 127 -82 39 0 71
15 85 41 21 40 40 198 40 335 0 354 -93 607 -334 911 l-29 36 26 107 c37 147
46 210 57 370 26 390 -66 851 -249 1247 -191 414 -431 755 -766 1090 -161 162
-267 255 -438 383 -96 73 -114 82 -151 82 -31 0 -48 -6 -64 -22z m794 -879
c364 -454 585 -929 671 -1444 14 -83 18 -161 17 -320 0 -236 -12 -321 -70
-523 -21 -73 -33 -131 -29 -143 4 -12 31 -48 61 -80 199 -217 303 -467 321
-770 8 -148 5 -151 -92 -78 -263 198 -490 279 -695 249 -99 -14 -175 -52 -286
-141 -186 -150 -395 -238 -689 -292 -162 -29 -532 -31 -700 -4 -426 70 -817
227 -1205 482 -259 170 -637 470 -774 613 l-39 41 114 -48 c817 -346 1617
-372 2253 -73 90 43 108 56 122 86 28 58 9 86 -156 227 -638 544 -1254 1176
-1690 1734 l-55 69 230 -185 c389 -313 616 -480 890 -656 251 -161 280 -176
320 -169 43 8 75 48 75 93 0 30 -16 52 -137 181 -210 226 -495 576 -722 887
l-61 85 272 -227 c562 -467 1110 -895 1448 -1130 177 -123 184 -126 224 -119
45 9 68 37 114 141 169 386 203 811 102 1279 -36 164 -112 388 -204 601 l-26
60 147 -150 c82 -82 194 -207 249 -276z"/>
</g>
</svg>
