; NON-PLATED HOLES START AT T1
; THROUGH (PLATED) HOLES START AT T100
M48
INCH
T1C0.125984
T100C0.038000
T101C0.035000
T102C0.015748
%
T1
X022431Y001162
X001171Y001162
X001171Y022422
X022431Y022422
T100
X011620Y022816
X012620Y000768
X012620Y022816
X007703Y015889
X015898Y007694
X017312Y017304
X006996Y016597
X006289Y006280
X006996Y006987
X008410Y015182
X015898Y015889
X016605Y016597
X018020Y005573
X006289Y017304
X010620Y000768
X011620Y000768
X010620Y022816
X017312Y006280
X008410Y008401
X016605Y006987
X015191Y015182
X013620Y022816
X007703Y007694
X005582Y018011
X009620Y000768
X018020Y018011
X015191Y008401
X009620Y022816
X005582Y005573
X013620Y000768
T101
X010265Y009166
X010265Y011166
X013265Y015166
X018037Y009036
X017078Y004471
X013265Y014166
X013265Y010166
X003298Y018250
X013265Y013166
X010265Y014166
X020375Y018322
X010265Y010166
X004786Y006352
X013265Y011166
X001895Y014548
X006360Y018807
X010265Y012166
X004551Y016997
X018037Y014548
X018887Y006280
X022037Y009036
X017312Y018878
X001895Y009036
X018330Y003218
X005895Y009036
X005342Y003289
X018565Y020131
X010265Y013166
X019122Y017069
X010265Y015166
X022037Y014548
X013265Y008166
X013265Y009166
X020140Y005027
X005895Y014548
X006595Y004542
X003533Y005099
X010265Y008166
X005108Y020060
X013265Y012166
T102
X001948Y003929
X016913Y001547
X012594Y016904
X022037Y003929
X011409Y017687
X006682Y001556
X008253Y000765
X016925Y021647
X011801Y004312
X001968Y020451
X008252Y018889
X006672Y020837
X010236Y017687
T00
M30
