G04 MADE WITH FRITZING*
G04 WWW.FRITZING.ORG*
G04 DOUBLE SIDED*
G04 HOLES PLATED*
G04 CONTOUR ON CENTER OF CONTOUR VECTOR*
%ASAXBY*%
%FSLAX23Y23*%
%MOIN*%
%OFA0B0*%
%SFA1.0B1.0*%
%ADD10C,0.075000*%
%ADD11C,0.078000*%
%ADD12C,0.039370*%
%ADD13R,0.075000X0.075000*%
%ADD14C,0.024000*%
%LNCOPPER0*%
G90*
G70*
G54D10*
X1327Y1517D03*
X1027Y1517D03*
X1327Y1417D03*
X1027Y1417D03*
X1327Y1317D03*
X1027Y1317D03*
X1327Y1217D03*
X1027Y1217D03*
X1327Y1117D03*
X1027Y1117D03*
X1327Y1017D03*
X1027Y1017D03*
X1327Y917D03*
X1027Y917D03*
X1327Y817D03*
X1027Y817D03*
X1327Y1517D03*
X1027Y1517D03*
X1327Y1417D03*
X1027Y1417D03*
X1327Y1317D03*
X1027Y1317D03*
X1327Y1217D03*
X1027Y1217D03*
X1327Y1117D03*
X1027Y1117D03*
X1327Y1017D03*
X1027Y1017D03*
X1327Y917D03*
X1027Y917D03*
X1327Y817D03*
X1027Y817D03*
X1912Y1707D03*
X1731Y1888D03*
X2038Y1832D03*
X1857Y2013D03*
X1708Y447D03*
X1889Y628D03*
X1833Y322D03*
X2014Y503D03*
X534Y329D03*
X353Y510D03*
X660Y454D03*
X479Y635D03*
X330Y1825D03*
X511Y2006D03*
X455Y1700D03*
X636Y1881D03*
G54D11*
X962Y2282D03*
X1062Y2282D03*
X1162Y2282D03*
X1262Y2282D03*
X1362Y2282D03*
X962Y2282D03*
X1062Y2282D03*
X1162Y2282D03*
X1262Y2282D03*
X1362Y2282D03*
X962Y77D03*
X1062Y77D03*
X1162Y77D03*
X1262Y77D03*
X1362Y77D03*
X962Y77D03*
X1062Y77D03*
X1162Y77D03*
X1262Y77D03*
X1362Y77D03*
X1802Y557D03*
X1731Y628D03*
X1661Y699D03*
X1590Y769D03*
X1519Y840D03*
X1802Y557D03*
X1731Y628D03*
X1661Y699D03*
X1590Y769D03*
X1519Y840D03*
X1802Y1801D03*
X1731Y1730D03*
X1661Y1660D03*
X1590Y1589D03*
X1519Y1518D03*
X1802Y1801D03*
X1731Y1730D03*
X1661Y1660D03*
X1590Y1589D03*
X1519Y1518D03*
X558Y557D03*
X629Y628D03*
X700Y699D03*
X770Y769D03*
X841Y840D03*
X558Y557D03*
X629Y628D03*
X700Y699D03*
X770Y769D03*
X841Y840D03*
X558Y1801D03*
X629Y1730D03*
X700Y1660D03*
X770Y1589D03*
X841Y1518D03*
X558Y1801D03*
X629Y1730D03*
X700Y1660D03*
X770Y1589D03*
X841Y1518D03*
G54D10*
X2204Y904D03*
X1804Y904D03*
X2204Y1455D03*
X1804Y1455D03*
X190Y904D03*
X590Y904D03*
X190Y1455D03*
X590Y1455D03*
G54D12*
X1141Y1769D03*
X1024Y1769D03*
X668Y156D03*
X667Y2084D03*
X825Y1889D03*
X2204Y393D03*
X1691Y155D03*
X195Y393D03*
X197Y2045D03*
X1693Y2165D03*
X825Y77D03*
X1180Y431D03*
X1259Y1690D03*
G54D13*
X1327Y1517D03*
X1327Y1517D03*
G54D14*
X1327Y788D02*
X1338Y470D01*
D02*
X1338Y470D02*
X1023Y155D01*
D02*
X1023Y155D02*
X981Y101D01*
D02*
X1259Y866D02*
X1303Y834D01*
D02*
X1259Y1671D02*
X1259Y866D01*
D02*
X976Y2255D02*
X1251Y1707D01*
D02*
X1416Y1652D02*
X1077Y2255D01*
D02*
X1416Y1338D02*
X1416Y1652D01*
D02*
X1354Y1323D02*
X1416Y1338D01*
D02*
X1141Y984D02*
X1051Y931D01*
D02*
X1141Y1750D02*
X1141Y984D01*
D02*
X1016Y1751D02*
X943Y1573D01*
D02*
X943Y903D02*
X1007Y837D01*
D02*
X943Y1573D02*
X943Y903D01*
D02*
X1327Y1088D02*
X1327Y1045D01*
D02*
X668Y175D02*
X660Y426D01*
D02*
X664Y2065D02*
X640Y1909D01*
D02*
X747Y1889D02*
X665Y1883D01*
D02*
X806Y1889D02*
X747Y1889D01*
D02*
X2204Y875D02*
X2204Y412D01*
D02*
X2086Y155D02*
X1710Y155D01*
D02*
X2195Y376D02*
X2086Y155D01*
D02*
X195Y786D02*
X195Y412D01*
D02*
X191Y875D02*
X195Y786D01*
D02*
X190Y1483D02*
X197Y2026D01*
D02*
X2188Y1479D02*
X2126Y1573D01*
D02*
X2126Y1573D02*
X2126Y2165D01*
D02*
X2126Y2165D02*
X1712Y2165D01*
D02*
X1457Y983D02*
X1457Y902D01*
D02*
X1457Y902D02*
X1350Y832D01*
D02*
X1354Y1010D02*
X1457Y983D01*
D02*
X1167Y418D02*
X839Y90D01*
D02*
X1692Y174D02*
X1692Y234D01*
D02*
X1692Y234D02*
X1342Y792D01*
G04 End of Copper0*
M02*